<mxfile host="Electron" agent="Mozilla/5.0 (Windows NT 10.0; Win64; x64) AppleWebKit/537.36 (KHTML, like Gecko) draw.io/26.2.2 Chrome/134.0.6998.178 Electron/35.1.2 Safari/537.36" version="26.2.2">
  <diagram name="PÃ¡gina-1" id="rNimHv7Ry2vRWzdorP_e">
    <mxGraphModel dx="1030" dy="707" grid="1" gridSize="10" guides="1" tooltips="1" connect="1" arrows="1" fold="1" page="1" pageScale="1" pageWidth="827" pageHeight="1169" math="0" shadow="0">
      <root>
        <mxCell id="0" />
        <mxCell id="1" parent="0" />
        <mxCell id="S8thfJisdmmBEH9snUJB-1" value="" style="verticalLabelPosition=bottom;shadow=0;dashed=0;align=center;html=1;verticalAlign=top;shape=mxgraph.electrical.logic_gates.logic_gate;operation=and;" vertex="1" parent="1">
          <mxGeometry x="30" y="20" width="100" height="60" as="geometry" />
        </mxCell>
        <mxCell id="S8thfJisdmmBEH9snUJB-3" value="" style="verticalLabelPosition=bottom;shadow=0;dashed=0;align=center;html=1;verticalAlign=top;shape=mxgraph.electrical.logic_gates.inverter_2" vertex="1" parent="1">
          <mxGeometry x="110" y="260" width="100" height="60" as="geometry" />
        </mxCell>
        <mxCell id="S8thfJisdmmBEH9snUJB-4" value="" style="verticalLabelPosition=bottom;shadow=0;dashed=0;align=center;html=1;verticalAlign=top;shape=mxgraph.electrical.logic_gates.logic_gate;operation=or;" vertex="1" parent="1">
          <mxGeometry x="30" y="100" width="100" height="60" as="geometry" />
        </mxCell>
        <mxCell id="S8thfJisdmmBEH9snUJB-5" value="" style="verticalLabelPosition=bottom;shadow=0;dashed=0;align=center;html=1;verticalAlign=top;shape=mxgraph.electrical.logic_gates.logic_gate;operation=xor;" vertex="1" parent="1">
          <mxGeometry x="30" y="180" width="100" height="60" as="geometry" />
        </mxCell>
        <mxCell id="S8thfJisdmmBEH9snUJB-6" value="" style="verticalLabelPosition=bottom;shadow=0;dashed=0;align=center;html=1;verticalAlign=top;shape=mxgraph.electrical.logic_gates.logic_gate;operation=and;negating=1;negSize=0.15;" vertex="1" parent="1">
          <mxGeometry x="190" y="20" width="100" height="60" as="geometry" />
        </mxCell>
        <mxCell id="S8thfJisdmmBEH9snUJB-7" value="" style="verticalLabelPosition=bottom;shadow=0;dashed=0;align=center;html=1;verticalAlign=top;shape=mxgraph.electrical.logic_gates.logic_gate;operation=or;negating=1;negSize=0.15;" vertex="1" parent="1">
          <mxGeometry x="190" y="100" width="100" height="60" as="geometry" />
        </mxCell>
        <mxCell id="S8thfJisdmmBEH9snUJB-8" value="" style="verticalLabelPosition=bottom;shadow=0;dashed=0;align=center;html=1;verticalAlign=top;shape=mxgraph.electrical.logic_gates.logic_gate;operation=xor;negating=1;negSize=0.15;" vertex="1" parent="1">
          <mxGeometry x="190" y="180" width="100" height="60" as="geometry" />
        </mxCell>
        <mxCell id="S8thfJisdmmBEH9snUJB-12" value="AND" style="text;html=1;align=center;verticalAlign=middle;resizable=0;points=[];autosize=1;strokeColor=none;fillColor=none;" vertex="1" parent="1">
          <mxGeometry x="50" y="35" width="50" height="30" as="geometry" />
        </mxCell>
        <mxCell id="S8thfJisdmmBEH9snUJB-13" value="OR" style="text;html=1;align=center;verticalAlign=middle;resizable=0;points=[];autosize=1;strokeColor=none;fillColor=none;" vertex="1" parent="1">
          <mxGeometry x="55" y="115" width="40" height="30" as="geometry" />
        </mxCell>
        <mxCell id="S8thfJisdmmBEH9snUJB-14" value="XOR" style="text;html=1;align=center;verticalAlign=middle;resizable=0;points=[];autosize=1;strokeColor=none;fillColor=none;" vertex="1" parent="1">
          <mxGeometry x="50" y="195" width="50" height="30" as="geometry" />
        </mxCell>
        <mxCell id="S8thfJisdmmBEH9snUJB-15" value="NAND" style="text;html=1;align=center;verticalAlign=middle;resizable=0;points=[];autosize=1;strokeColor=none;fillColor=none;" vertex="1" parent="1">
          <mxGeometry x="210" y="35" width="60" height="30" as="geometry" />
        </mxCell>
        <mxCell id="S8thfJisdmmBEH9snUJB-16" value="NOR" style="text;html=1;align=center;verticalAlign=middle;resizable=0;points=[];autosize=1;strokeColor=none;fillColor=none;" vertex="1" parent="1">
          <mxGeometry x="215" y="115" width="50" height="30" as="geometry" />
        </mxCell>
        <mxCell id="S8thfJisdmmBEH9snUJB-17" value="XNOR" style="text;html=1;align=center;verticalAlign=middle;resizable=0;points=[];autosize=1;strokeColor=none;fillColor=none;" vertex="1" parent="1">
          <mxGeometry x="210" y="195" width="60" height="30" as="geometry" />
        </mxCell>
        <mxCell id="S8thfJisdmmBEH9snUJB-18" value="NOT" style="text;html=1;align=center;verticalAlign=middle;resizable=0;points=[];autosize=1;strokeColor=none;fillColor=none;" vertex="1" parent="1">
          <mxGeometry x="125" y="275" width="50" height="30" as="geometry" />
        </mxCell>
      </root>
    </mxGraphModel>
  </diagram>
</mxfile>
